<svg version="1.1" id="Layer_1" xmlns:x="ns_extend;" xmlns:i="ns_ai;" xmlns:graph="ns_graphs;" xmlns="http://www.w3.org/2000/svg" xmlns:xlink="http://www.w3.org/1999/xlink" x="0px" y="0px" viewBox="0 0 125 48" style="enable-background:new 0 0 125 48;" xml:space="preserve">
 <style type="text/css">
  .st0{fill:#0321AA;}
 </style>
 <metadata>
  <sfw xmlns="ns_sfw;">
   <slices>
   </slices>
   <sliceSourceBounds bottomLeftOrigin="true" height="48" width="125" x="-21.3" y="-7.9">
   </sliceSourceBounds>
  </sfw>
 </metadata>
 <g>
  <g>
   <g>
    <path class="st0" d="M51.4,14.7c-0.7-0.9-1.6-1.5-2.6-2c-1-0.4-2-0.6-3.1-0.6c-1,0-2.1,0.2-3,0.6c-0.8,0.4-1.5,0.8-2.1,1.5v-3.6
				h-6.9v21.3c-0.1,0.1-0.2,0.1-0.3,0.2c-0.4,0.2-0.8,0.3-1.2,0.3c-0.9,0-1.6-0.2-2.1-0.7c-0.5-0.5-0.8-1.1-1-1.8
				c-0.2-0.7-0.4-1.5-0.4-2.2c0-0.8-0.1-1.5-0.1-2.1V0h-7.5v3c0,0-1.7-1.3-3.1-1.9c-1.3-0.5-2.6-0.8-4-0.8c-2.5,0-4.6,0.7-6.4,2
				C5.8,3.7,4.3,5.5,3.3,7.5c-1.2,2.2-2,4.5-2.5,6.9C0.3,16.7,0,19.2,0,21.6c0,3,0.4,5.6,1.2,7.8c0.8,2.1,1.8,3.9,3,5.2
				c1.1,1.3,2.5,2.3,4.1,2.9c1.4,0.6,3,0.9,4.5,0.9c2.4,0,4.4-0.7,6.1-2.1c1.6-1.3,2.9-3,3.7-5c0.4,2.5,1.3,4,2.5,5
				c1.2,1,2.6,1.6,4.2,1.6c0.5,0,1-0.1,1.5-0.2c1.1-0.2,2.1-0.5,3-1.1V48l6.9-1.7V34.7c0.4,0.5,1,0.9,1.6,1.2
				c0.7,0.3,1.7,0.5,2.9,0.5c1.7,0,3.1-0.4,4.2-1.1c1.1-0.7,2.1-1.7,2.7-2.9c0.7-1.3,1.2-2.7,1.4-4.1c0.3-1.5,0.4-3,0.4-4.6
				c0-2.1-0.2-3.9-0.7-5.4C52.7,16.8,52.1,15.6,51.4,14.7z M21.2,24.5c0,1-0.2,2.1-0.5,3.1c-0.3,0.9-0.8,1.8-1.4,2.5
				c-0.6,0.7-1.3,1.3-2.2,1.8c-0.8,0.4-1.7,0.7-2.7,0.7c-1.8,0-3.3-0.9-4.5-2.6c-1.2-1.8-1.8-4.6-1.8-8.6c0-1.9,0.2-3.8,0.5-5.7
				c0.3-1.9,0.8-3.7,1.5-5.4c0.6-1.5,1.5-2.9,2.7-4c0.5-0.5,1.1-0.9,1.8-1.2c0.7-0.3,1.4-0.4,2.2-0.4c1.3,0,2.3,0.3,3,1
				c0.7,0.6,1.2,1.4,1.5,2.2V24.5z M47,26.3c-0.1,1-0.4,2-0.7,3c-0.3,0.8-0.8,1.6-1.4,2.2c-0.3,0.3-0.6,0.5-1,0.6
				c-0.4,0.1-0.7,0.2-1.1,0.2c-0.5,0-1-0.1-1.4-0.4c-0.3-0.2-0.6-0.4-0.8-0.7V17.9c0.2-0.7,0.6-1.3,1.2-1.8c0.5-0.4,1.1-0.6,1.7-0.6
				c0.3,0,0.6,0.1,0.9,0.2c0.5,0.2,0.9,0.5,1.2,0.9c0.4,0.5,0.8,1.2,1.1,2.3c0.3,1,0.5,2.4,0.5,4.1C47.2,24.1,47.1,25.2,47,26.3z">
    </path>
    <path class="st0" d="M73.9,14.7c-0.7-0.9-1.6-1.5-2.6-2c-1-0.4-2-0.6-3.1-0.6c-0.9,0-1.9,0.1-2.8,0.5c-0.9,0.4-1.7,0.9-2.3,1.6
				v-3.6h-6.9V48l6.9-1.7V34.7c0.4,0.5,1,0.9,1.6,1.2c0.7,0.3,1.7,0.5,2.9,0.5c1.7,0,3.1-0.4,4.2-1.1c1.1-0.7,2.1-1.7,2.7-2.9
				c0.7-1.3,1.2-2.7,1.4-4.1c0.3-1.5,0.4-3,0.4-4.6c0-2.1-0.2-3.9-0.7-5.4C75.2,16.8,74.6,15.6,73.9,14.7z M69.5,26.3
				c-0.1,1-0.4,2-0.7,3c-0.3,0.8-0.8,1.6-1.4,2.2c-0.3,0.3-0.6,0.5-1,0.6c-0.4,0.1-0.7,0.2-1.1,0.2c-0.5,0-1-0.1-1.4-0.4
				c-0.3-0.2-0.6-0.4-0.8-0.7V17.9c0.2-0.7,0.6-1.3,1.2-1.8c0.5-0.4,1.1-0.6,1.7-0.6c0.3,0,0.6,0.1,0.9,0.2c0.5,0.2,0.9,0.5,1.2,0.9
				c0.4,0.5,0.8,1.2,1.1,2.3c0.3,1,0.5,2.4,0.5,4.1C69.7,24.1,69.6,25.2,69.5,26.3z">
    </path>
    <path class="st0" d="M124.7,14.8c-0.2-0.5-0.5-1-0.9-1.4c-0.4-0.4-0.8-0.8-1.3-1c-0.5-0.3-1.1-0.4-1.6-0.4c-1,0-2,0.3-2.8,1
				c-0.9,0.6-1.6,1.4-2.3,2.2v-3h-6.9V28c-0.4,0.5-0.7,1-1.1,1.4c-0.5,0.6-1,1.1-1.6,1.5c-0.6,0.4-1.3,0.8-2,1
				c-0.8,0.3-1.7,0.4-2.5,0.4c-1.7,0-2.9-0.5-3.6-1.4c-0.7-0.9-1-2.4-1.1-4.5c1.2-0.1,2.3-0.3,3.5-0.7c1.1-0.4,2.1-1,3-1.7
				c0.9-0.8,1.6-1.7,2.1-2.7c0.5-1.2,0.8-2.5,0.8-3.8c0-0.4-0.1-0.9-0.1-1.3c-0.1-0.7-0.3-1.3-0.7-1.9c-0.5-0.7-1.1-1.3-1.8-1.7
				c-0.8-0.5-2-0.7-3.5-0.7c-2,0-3.7,0.4-5,1.3c-1.3,0.9-2.3,2-3.1,3.3c-0.8,1.4-1.3,2.8-1.6,4.4c-0.3,1.5-0.4,2.9-0.5,4.4
				c0,1.6,0.2,3.1,0.6,4.7c-0.1,0.2-0.2,0.3-0.3,0.4c-0.6,0.8-1.4,1.2-2.3,1.2s-1.6-0.2-1.9-0.6c-0.4-0.4-0.5-1.3-0.5-2.6V12.3h-6.9
				V29c0,2.2,0.5,4,1.5,5.4c1,1.3,2.7,2,5.2,2c0.7,0,1.5-0.1,2.2-0.3c0.9-0.2,1.7-0.6,2.4-1.2c0.7-0.6,1.4-1.3,1.9-2.2
				c0.3,0.4,0.6,0.8,0.9,1.1c0.8,0.9,1.9,1.5,3,1.9c2.6,0.9,5.4,0.8,8-0.1c1.2-0.5,2.2-1.2,3.2-2c0.7-0.7,1.4-1.4,2-2.3v7.1l6.9-3.9
				V18c0.5-0.5,0.9-0.9,1.5-1.4c0.4-0.3,0.9-0.5,1.4-0.5c0.4,0,0.8,0.2,0.9,0.5c0.2,0.3,0.3,0.7,0.5,1c0.2,0.4,0.4,0.7,0.7,1
				c0.3,0.3,0.8,0.5,1.5,0.5c1,0,1.7-0.3,2.1-0.9c0.4-0.6,0.6-1.2,0.6-1.9C125,15.8,124.9,15.3,124.7,14.8z M97.4,20.6
				c0.2-1,0.4-2.1,0.8-3.1c0.3-0.8,0.7-1.5,1.2-2.1c0.4-0.5,0.9-0.8,1.5-0.8c0.4,0,0.9,0.2,1.2,0.7c0.4,0.5,0.6,1.2,0.6,2.3
				c0,0.8-0.1,1.7-0.4,2.5c-0.3,0.7-0.7,1.4-1.2,2c-0.5,0.6-1.1,1.1-1.8,1.4c-0.7,0.4-1.5,0.6-2.2,0.6C97.1,23,97.2,21.8,97.4,20.6z
				">
    </path>
    <path class="st0" d="M82,9.5c0.6,0,1.1-0.1,1.7-0.3c0.5-0.2,1-0.5,1.4-0.9c0.4-0.4,0.7-0.9,1-1.4c0.2-0.5,0.3-1.1,0.3-1.6
				c0-1.1-0.5-2.2-1.3-3c-0.8-0.8-1.9-1.3-3.1-1.3c-0.6,0-1.1,0.1-1.6,0.3s-1,0.5-1.4,1C78.6,2.6,78.3,3,78,3.6
				c-0.2,0.5-0.3,1.1-0.3,1.6c0,0.6,0.1,1.1,0.3,1.6c0.2,0.5,0.5,1,0.9,1.4c0.4,0.4,0.9,0.7,1.4,0.9C80.9,9.4,81.4,9.5,82,9.5z">
    </path>
   </g>
  </g>
 </g>
</svg>